<svg width="54" height="60" viewBox="0 0 54 60" fill="none" xmlns="http://www.w3.org/2000/svg">
<path d="M10.4979 22.7755C15.2039 16.0327 19.9099 13.5442 21.6747 13.1429C17.5569 16.7551 18.4393 22.7755 21.0864 25.7857C23.2042 28.1939 25.8905 28.7959 26.969 28.7959C28.4396 28.8963 31.9103 28.4347 34.028 25.7857C36.1457 23.1367 36.283 19.2636 36.0869 17.6582C34.6751 6.09898 42.7538 1.40306 46.9696 0.5C40.4988 11.9388 46.9696 18.2602 49.3226 20.9694C51.205 23.1367 52.8522 28.0935 53.4404 30.301C53.9306 32.9099 54.4404 39.2112 52.558 43.5459C50.205 48.9643 49.3226 49.5663 47.2637 52.2755C45.6166 54.4429 41.6753 56.5901 39.9106 57.3929C38.538 58.0952 34.6751 59.5 30.2044 59.5C25.7337 59.5 21.4786 57.6939 19.9099 56.7908L17.8511 55.5867C15.5961 54.3827 10.439 49.9276 7.85073 41.7398C5.26241 33.552 8.53703 25.6854 10.4979 22.7755Z" fill="#01BAEF"/>
<path d="M4.42121 22.7755C9.02711 16.0327 13.633 13.5442 15.3602 13.1429C11.3301 16.7551 12.1937 22.7755 14.7845 25.7857C16.8572 28.1939 19.4864 28.7959 20.5419 28.7959C21.9812 28.8963 25.3781 28.4347 27.4507 25.7857C29.5234 23.1367 29.6577 19.2636 29.4658 17.6582C28.084 6.09898 35.9908 1.40306 40.117 0.5C33.7838 11.9388 40.117 18.2602 42.4199 20.9694C44.2623 23.1367 45.8743 28.0935 46.4501 30.301C46.9299 32.9099 47.4288 39.2112 45.5865 43.5459C43.2835 48.9643 42.4199 49.5663 40.4048 52.2755C38.7928 54.4429 34.9353 56.5901 33.2081 57.3929C31.8647 58.0952 28.084 59.5 23.7084 59.5C19.3328 59.5 15.1683 57.6939 13.633 56.7908L11.6179 55.5867C9.41094 54.3827 4.36363 49.9276 1.83039 41.7398C-0.70286 33.552 2.50208 25.6854 4.42121 22.7755Z" fill="#061A40"/>
</svg>
