<svg width="508" height="517" viewBox="0 0 508 517" fill="none" xmlns="http://www.w3.org/2000/svg">
<path d="M56.1379 232.552H106.138L81.3103 168.414L56.1379 232.552ZM105.103 141.517L157.862 286H124.759L112.69 251.862H49.5862L37.8621 286H4.75862L57.1724 141.517H105.103ZM235.202 266.69C244.627 266.69 249.34 263.471 249.34 257.034V237.379H224.167V218.069H282.443V260.138C282.443 268.184 278.305 274.506 270.029 279.103C262.443 283.701 253.018 286 241.753 286H214.857C197.156 286 184.742 281.057 177.616 271.172C175.317 267.954 174.167 264.276 174.167 260.138V167.379C174.167 159.563 178.075 153.356 185.891 148.759C193.937 143.931 203.593 141.517 214.857 141.517H241.753C253.018 141.517 262.558 143.816 270.374 148.414C278.42 153.011 282.443 159.333 282.443 167.379V186.69H249.34V170.483C249.34 164.046 244.627 160.828 235.202 160.828H221.409C211.983 160.828 207.271 164.046 207.271 170.483V257.034C207.271 263.471 211.983 266.69 221.409 266.69H235.202ZM307.175 286V141.517H341.313L393.037 229.793V141.862H426.485V286H391.658L340.279 199.103V286H307.175ZM457.297 286V141.517H490.4V286H457.297Z" fill="#061A40"/>
<path d="M57.2759 416.69C66.4713 416.69 71.069 413.471 71.069 407.034V390.828H104.172V410.138C104.172 418.184 100.034 424.506 91.7586 429.103C84.1724 433.701 74.8621 436 63.8276 436H40.7241C23.023 436 10.6092 431.057 3.48276 421.172C1.18391 417.954 0.0344827 414.276 0.0344827 410.138V317.379C0.0344827 309.563 3.94253 303.356 11.7586 298.759C19.8046 293.931 29.4598 291.517 40.7241 291.517H63.8276C74.8621 291.517 84.2874 293.816 92.1034 298.414C100.149 303.011 104.172 309.333 104.172 317.379V336.69H71.069V320.483C71.069 314.046 66.4713 310.828 57.2759 310.828H47.2759C37.8506 310.828 33.1379 314.046 33.1379 320.483V407.034C33.1379 413.471 37.8506 416.69 47.2759 416.69H57.2759ZM338.596 416.69C348.021 416.69 352.734 413.471 352.734 407.034V320.483C352.734 314.046 348.021 310.828 338.596 310.828H312.044V416.69H338.596ZM345.492 291.517C356.527 291.517 365.952 293.816 373.768 298.414C381.814 303.011 385.837 309.333 385.837 317.379V410.138C385.837 418.184 381.699 424.506 373.423 429.103C365.837 433.701 356.527 436 345.492 436H278.941V291.517H345.492ZM505.055 436H406.089V291.517H505.055V310.828H439.193V349.448H490.917V368.759H439.193V416.69H505.055V436Z" fill="#01BAEF"/>
<path d="M136.387 323.483C151.475 301.239 166.562 293.03 172.22 291.706C159.018 303.622 161.847 323.483 170.334 333.413C177.123 341.357 185.736 343.343 189.193 343.343C193.908 343.674 205.035 342.151 211.824 333.413C218.614 324.674 219.054 311.898 218.425 306.601C213.899 268.47 239.799 252.979 253.315 250C232.57 287.734 253.315 308.587 260.859 317.525C266.894 324.674 272.174 341.026 274.06 348.308C275.632 356.914 277.266 377.701 271.231 392C263.687 409.874 260.859 411.86 254.258 420.797C248.977 427.947 236.341 435.031 230.684 437.679C226.283 439.996 213.899 444.63 199.566 444.63C185.233 444.63 171.591 438.672 166.562 435.693L159.961 431.721C152.732 427.749 136.199 413.052 127.901 386.042C119.602 359.032 130.101 333.082 136.387 323.483Z" fill="#01BAEF"/>
<path d="M117.552 323.483C132.639 301.239 147.727 293.03 153.385 291.706C140.183 303.622 143.012 323.483 151.499 333.413C158.288 341.357 166.901 343.343 170.358 343.343C175.073 343.674 186.2 342.151 192.989 333.413C199.779 324.674 200.219 311.898 199.59 306.601C195.064 268.47 220.964 252.979 234.48 250C213.734 287.734 234.48 308.587 242.023 317.525C248.058 324.674 253.339 341.026 255.225 348.308C256.797 356.914 258.431 377.701 252.396 392C244.852 409.874 242.023 411.86 235.423 420.797C230.142 427.947 217.506 435.031 211.849 437.679C207.448 439.996 195.064 444.63 180.731 444.63C166.398 444.63 152.756 438.672 147.727 435.693L141.126 431.721C133.897 427.749 117.363 413.052 109.065 386.042C100.767 359.032 111.266 333.082 117.552 323.483Z" fill="#061A40"/>
</svg>
