<svg width="14" height="15" viewBox="0 0 14 15" fill="none" xmlns="http://www.w3.org/2000/svg">
<path d="M3.07865 5.78117C4.16678 4.17693 5.25492 3.58489 5.66298 3.4894C4.71085 4.34881 4.91488 5.78117 5.52696 6.49735C6.01662 7.07029 6.63777 7.21353 6.88713 7.21353C7.22718 7.2374 8.02968 7.12759 8.51934 6.49735C9.009 5.86711 9.04074 4.94563 8.9954 4.56367C8.66896 1.81354 10.5369 0.696299 11.5117 0.481445C10.0155 3.20293 11.5117 4.7069 12.0558 5.35146C12.491 5.86711 12.8719 7.04642 13.0079 7.57162C13.1213 8.19231 13.2391 9.69151 12.8039 10.7228C12.2598 12.0119 12.0558 12.1552 11.5797 12.7997C11.1989 13.3154 10.2876 13.8262 9.87951 14.0172C9.56214 14.1843 8.66896 14.5186 7.63523 14.5186C6.6015 14.5186 5.61764 14.0888 5.25493 13.874L4.77886 13.5875C4.25746 13.301 3.06504 12.2411 2.46657 10.2931C1.86809 8.34509 2.62526 6.47348 3.07865 5.78117Z" fill="#01BAEF"/>
<path d="M1.72023 5.78117C2.80837 4.17693 3.8965 3.58489 4.30456 3.4894C3.35243 4.34881 3.55646 5.78117 4.16854 6.49735C4.6582 7.07029 5.27935 7.21353 5.52871 7.21353C5.86876 7.2374 6.67126 7.12759 7.16092 6.49735C7.65058 5.86711 7.68232 4.94563 7.63698 4.56367C7.31054 1.81354 9.17851 0.696299 10.1533 0.481445C8.65711 3.20293 10.1533 4.7069 10.6974 5.35146C11.1326 5.86711 11.5135 7.04642 11.6495 7.57162C11.7628 8.19231 11.8807 9.69151 11.4455 10.7228C10.9014 12.0119 10.6974 12.1552 10.2213 12.7997C9.84046 13.3154 8.92915 13.8262 8.5211 14.0172C8.20372 14.1843 7.31054 14.5186 6.27681 14.5186C5.24308 14.5186 4.25922 14.0888 3.89651 13.874L3.42045 13.5875C2.89905 13.3011 1.70663 12.2411 1.10815 10.2931C0.509674 8.34509 1.26684 6.47348 1.72023 5.78117Z" fill="#061A40" stroke="#01BAEF" stroke-width="0.5"/>
</svg>
